<svg xmlns="http://www.w3.org/2000/svg" xmlns:xlink="http://www.w3.org/1999/xlink" viewBox="0 0 199.47 170.08"><defs><style>.cls-1{fill:url(#linear-gradient);}.cls-2{fill:url(#radial-gradient);}</style><linearGradient id="linear-gradient" x1="101.42" y1="-39.27" x2="98.03" y2="186.19" gradientUnits="userSpaceOnUse"><stop offset="0" stop-color="#fff"/><stop offset="0.29" stop-color="#fdfdfd"/><stop offset="0.39" stop-color="#f6f6f6"/><stop offset="0.47" stop-color="#ebebeb"/><stop offset="0.52" stop-color="#dadada"/><stop offset="0.58" stop-color="#c4c4c4"/><stop offset="0.62" stop-color="#a8a8a8"/><stop offset="0.66" stop-color="#888"/><stop offset="0.7" stop-color="#626262"/><stop offset="0.74" stop-color="#373737"/><stop offset="0.77" stop-color="#090909"/><stop offset="0.77"/></linearGradient><radialGradient id="radial-gradient" cx="81.29" cy="117.18" r="71.9" gradientUnits="userSpaceOnUse"><stop offset="0" stop-color="#d6de23"/><stop offset="1" stop-color="#faaf40"/></radialGradient></defs><g id="Layer_2" data-name="Layer 2"><g id="Layer_1-2" data-name="Layer 1"><path class="cls-1" d="M157.47,51.27C172.38,13,117.07-8.65,107.59,35,68-37.65,11.08,22,29.51,43.13c-43.1,2.44-34.16,55.31-4.06,54.49,0,0,13.22.36,32.18.78L89.11,64.89a1.91,1.91,0,0,1,1.4-.6h36.06a1.92,1.92,0,0,1,1.35,3.28L107.75,87.74A1.92,1.92,0,0,0,109.07,91l30.59.69a1.92,1.92,0,0,1,1,3.54l-6.91,4.41c16.93.15,32.26.14,42.69-.14C216.29,98.44,200.84,28.49,157.47,51.27Z"/><path class="cls-2" d="M139.66,91.71,109.07,91a1.92,1.92,0,0,1-1.32-3.28l20.17-20.17a1.92,1.92,0,0,0-1.35-3.28H90.51a1.91,1.91,0,0,0-1.4.6L57.63,98.4,47.48,109.2a1.92,1.92,0,0,0,1.4,3.24H71.32a1.92,1.92,0,0,1,1.36,3.28L21.62,166.78a1.92,1.92,0,0,0,2.39,3l109.74-70.1,6.91-4.41A1.92,1.92,0,0,0,139.66,91.71Z"/></g></g></svg>